<svg width="112" height="48" viewBox="0 0 112 48" fill="none" xmlns="http://www.w3.org/2000/svg">
<path d="M9.6 23.6V18.3H17.6V37.35C16.6333 37.6833 15.45 37.9333 14.05 38.1C12.65 38.3 11.3 38.4 10 38.4C7.33333 38.4 5.35 37.9333 4.05 37C2.75 36.0667 1.85 34.3833 1.35 31.95C0.85 29.4833 0.6 25.7667 0.6 20.8C0.6 15.8333 0.866667 12.1333 1.4 9.7C1.93333 7.23333 2.9 5.53333 4.3 4.6C5.7 3.66666 7.8 3.2 10.6 3.2C11.6667 3.2 12.85 3.3 14.15 3.5C15.4833 3.66666 16.6167 3.88333 17.55 4.15V9.2C15.1833 8.83333 13.4167 8.65 12.25 8.65C10.3833 8.65 9.1 8.85 8.4 9.25C7.7 9.65 7.21667 10.65 6.95 12.25C6.68333 13.85 6.55 16.7 6.55 20.8C6.55 24.7 6.61667 27.45 6.75 29.05C6.91667 30.65 7.23333 31.7333 7.7 32.3C8.16667 32.8333 8.98333 33.1 10.15 33.1C10.9833 33.1 11.6667 33.0333 12.2 32.9V23.6H9.6ZM31.5102 34.9H31.1602C30.4935 37.2333 28.8602 38.4 26.2602 38.4C24.8268 38.4 23.7435 38.1167 23.0102 37.55C22.3102 36.95 21.8268 36.0333 21.5602 34.8C21.3268 33.5333 21.2102 31.75 21.2102 29.45V12.5H26.8602V26.75C26.8602 28.8833 26.9102 30.3833 27.0102 31.25C27.1102 32.1167 27.2935 32.6833 27.5602 32.95C27.8602 33.1833 28.3768 33.3 29.1102 33.3C29.8768 33.3 30.4102 33.0833 30.7102 32.65C31.0435 32.2167 31.2435 31.5167 31.3102 30.55C31.3768 29.55 31.4102 27.8 31.4102 25.3V12.5H37.0602V38H31.7102L31.5102 34.9Z" fill="black"/>
<path d="M46.7902 38.4C45.7569 38.4 44.6236 38.3167 43.3902 38.15C42.1902 38.0167 41.2069 37.8333 40.4402 37.6V33.2C42.1069 33.4667 43.6902 33.6 45.1902 33.6C46.3902 33.6 47.2236 33.4 47.6902 33C48.1902 32.5667 48.4402 31.8 48.4402 30.7C48.4402 29.8333 48.3902 29.2167 48.2902 28.85C48.2236 28.45 48.0736 28.1833 47.8402 28.05C47.6069 27.8833 47.2069 27.75 46.6402 27.65L43.0902 26.95C41.9569 26.75 41.1402 26.1167 40.6402 25.05C40.1736 23.9833 39.9402 22.2333 39.9402 19.8C39.9402 17.0667 40.5569 15.1 41.7902 13.9C43.0236 12.7 44.8569 12.1 47.2902 12.1C48.2902 12.1 49.3069 12.1833 50.3402 12.35C51.4069 12.4833 52.2569 12.6667 52.8902 12.9V17.35C51.3236 17.05 49.8236 16.9 48.3902 16.9C47.3569 16.9 46.6236 17.0833 46.1902 17.45C45.7902 17.8167 45.5902 18.5333 45.5902 19.6C45.5902 20.4333 45.6236 21.0333 45.6902 21.4C45.7569 21.7333 45.8902 21.9667 46.0902 22.1C46.2902 22.2333 46.6236 22.35 47.0902 22.45L50.1402 23.05C50.9402 23.1833 51.6069 23.45 52.1402 23.85C52.6736 24.2167 53.1069 24.9 53.4402 25.9C53.8069 26.9 53.9902 28.3333 53.9902 30.2C53.9902 33.2333 53.4069 35.3667 52.2402 36.6C51.0736 37.8 49.2569 38.4 46.7902 38.4ZM67.0094 23.75C67.0094 21.5833 66.9594 20.0833 66.8594 19.25C66.7927 18.3833 66.6094 17.8333 66.3094 17.6C66.0427 17.3333 65.5427 17.2 64.8094 17.2C64.0094 17.2 63.4427 17.4167 63.1094 17.85C62.8094 18.2833 62.626 19 62.5594 20C62.4927 20.9667 62.4594 22.7 62.4594 25.2V38H56.8094V0.849998H62.4594V15.4H62.8594C63.4927 13.2 65.0927 12.1 67.6594 12.1C69.0927 12.1 70.1594 12.4 70.8594 13C71.5594 13.5667 72.026 14.4833 72.2594 15.75C72.526 16.9833 72.6594 18.75 72.6594 21.05V38H67.0094V23.75ZM83.9395 38.4C81.4728 38.4 79.6728 38.05 78.5395 37.35C77.4395 36.6167 76.7228 35.3833 76.3895 33.65C76.0561 31.8833 75.8895 29.0833 75.8895 25.25C75.8895 21.45 76.0561 18.6833 76.3895 16.95C76.7228 15.1833 77.4395 13.9333 78.5395 13.2C79.6728 12.4667 81.4728 12.1 83.9395 12.1C86.4395 12.1 88.2395 12.4667 89.3395 13.2C90.4728 13.9333 91.2061 15.1667 91.5395 16.9C91.8728 18.6333 92.0395 21.4167 92.0395 25.25C92.0395 29.0833 91.8728 31.8833 91.5395 33.65C91.2061 35.3833 90.4728 36.6167 89.3395 37.35C88.2395 38.05 86.4395 38.4 83.9395 38.4ZM83.9395 33.6C84.7728 33.6 85.3395 33.4333 85.6395 33.1C85.9728 32.7667 86.1728 32.0833 86.2395 31.05C86.3395 29.9833 86.3895 28.05 86.3895 25.25C86.3895 22.45 86.3395 20.5333 86.2395 19.5C86.1728 18.4333 85.9728 17.7333 85.6395 17.4C85.3395 17.0667 84.7728 16.9 83.9395 16.9C83.1395 16.9 82.5728 17.0667 82.2395 17.4C81.9395 17.7333 81.7395 18.4333 81.6395 19.5C81.5728 20.5333 81.5395 22.45 81.5395 25.25C81.5395 28.05 81.5728 29.9833 81.6395 31.05C81.7395 32.0833 81.9395 32.7667 82.2395 33.1C82.5728 33.4333 83.1395 33.6 83.9395 33.6ZM95.4324 12.5H100.782L100.982 15.55H101.382C101.649 14.2833 102.182 13.4 102.982 12.9C103.782 12.3667 104.716 12.1 105.782 12.1C107.316 12.1 108.482 12.4667 109.282 13.2C110.116 13.9333 110.699 15.2333 111.032 17.1C111.366 18.9333 111.532 21.65 111.532 25.25C111.532 28.75 111.382 31.4333 111.082 33.3C110.782 35.1333 110.232 36.45 109.432 37.25C108.632 38.0167 107.449 38.4 105.882 38.4C103.482 38.4 102.016 37.3333 101.482 35.2H101.082V47.8H95.4324V12.5ZM103.482 33.3C104.282 33.3 104.832 33.15 105.132 32.85C105.432 32.55 105.632 31.8833 105.732 30.85C105.832 29.8167 105.882 27.95 105.882 25.25C105.882 22.55 105.832 20.6833 105.732 19.65C105.632 18.6167 105.432 17.95 105.132 17.65C104.832 17.35 104.282 17.2 103.482 17.2C102.849 17.2 102.349 17.35 101.982 17.65C101.649 17.9167 101.416 18.45 101.282 19.25C101.182 19.7833 101.116 20.5833 101.082 21.65C101.082 22.6833 101.082 23.8833 101.082 25.25C101.082 28.2833 101.149 30.1833 101.282 30.95C101.449 31.8833 101.699 32.5167 102.032 32.85C102.366 33.15 102.849 33.3 103.482 33.3Z" fill="#FFC700"/>
</svg>
